<svg width="19" height="19" viewBox="0 0 19 19" fill="none" xmlns="http://www.w3.org/2000/svg">
<path d="M7.429 2.04638L5.529 4.09267H1.9V16.3705H17.1V4.09267H13.471L11.571 2.04638H7.429ZM6.65 8.01086e-05H12.35L14.25 2.04638H18.05C18.316 2.04638 18.5408 2.14528 18.7245 2.34309C18.9082 2.5409 19 2.78304 19 3.06953V17.3936C19 17.6801 18.9082 17.9222 18.7245 18.12C18.5408 18.3178 18.316 18.4167 18.05 18.4167H0.95C0.684 18.4167 0.459167 18.3178 0.2755 18.12C0.0918333 17.9222 0 17.6801 0 17.3936V3.06953C0 2.78304 0.0918333 2.5409 0.2755 2.34309C0.459167 2.14528 0.684 2.04638 0.95 2.04638H4.75L6.65 8.01086e-05ZM9.5 15.3473C8.55 15.3473 7.676 15.0949 6.878 14.5902C6.08 14.0854 5.44667 13.4033 4.978 12.5439C4.50933 11.6844 4.275 10.7431 4.275 9.71999C4.275 8.69684 4.50933 7.75554 4.978 6.8961C5.44667 6.03666 6.08 5.35456 6.878 4.8498C7.676 4.34505 8.55 4.09267 9.5 4.09267C10.45 4.09267 11.324 4.34505 12.122 4.8498C12.92 5.35456 13.5533 6.03666 14.022 6.8961C14.4907 7.75554 14.725 8.69684 14.725 9.71999C14.725 10.7431 14.4907 11.6844 14.022 12.5439C13.5533 13.4033 12.92 14.0854 12.122 14.5902C11.324 15.0949 10.45 15.3473 9.5 15.3473ZM9.5 13.301C10.108 13.301 10.6653 13.1407 11.172 12.8201C11.6787 12.4995 12.0808 12.0664 12.3785 11.5207C12.6762 10.9751 12.825 10.3748 12.825 9.71999C12.825 9.06517 12.6762 8.46493 12.3785 7.91925C12.0808 7.37357 11.6787 6.94044 11.172 6.61985C10.6653 6.29926 10.108 6.13897 9.5 6.13897C8.892 6.13897 8.33467 6.29926 7.828 6.61985C7.32133 6.94044 6.91917 7.37357 6.6215 7.91925C6.32383 8.46493 6.175 9.06517 6.175 9.71999C6.175 10.3748 6.32383 10.9751 6.6215 11.5207C6.91917 12.0664 7.32133 12.4995 7.828 12.8201C8.33467 13.1407 8.892 13.301 9.5 13.301Z" fill="#9CA3AF"/>
</svg>
