<svg width="34" height="28" viewBox="0 0 34 28" fill="none" xmlns="http://www.w3.org/2000/svg">
<path d="M34 26.5043C34 26.9231 33.8174 27.2771 33.4522 27.5662C33.087 27.8554 32.64 28 32.1111 28H1.88889C1.36 28 0.912963 27.8554 0.547778 27.5662C0.182593 27.2771 0 26.9231 0 26.5043V10.7991C0 10.3006 0.239259 9.90171 0.717778 9.60256L15.8289 0.299145C16.1815 0.0997143 16.5719 0 17 0C17.4281 0 17.8185 0.0997143 18.1711 0.299145L33.2822 9.60256C33.7607 9.90171 34 10.3006 34 10.7991V26.5043ZM15.1111 16.0342V25.0085H18.8889V16.0342H15.1111Z" fill="#203AB9"/>
</svg>
