<svg width="26" height="27" viewBox="0 0 26 27" fill="none" xmlns="http://www.w3.org/2000/svg">
<path d="M0 27C0 25.1314 0.595833 23.4 1.7875 21.8057C2.93583 20.2629 4.485 19.0371 6.435 18.1286C8.45 17.1857 10.6383 16.7143 13 16.7143C15.3617 16.7143 17.55 17.1857 19.565 18.1286C21.515 19.0371 23.0642 20.2629 24.2125 21.8057C25.4042 23.4 26 25.1314 26 27H22.75C22.75 25.6114 22.3058 24.3171 21.4175 23.1171C20.5508 21.9514 19.3808 21.0257 17.9075 20.34C16.3908 19.6371 14.755 19.2857 13 19.2857C11.245 19.2857 9.60917 19.6371 8.0925 20.34C6.61917 21.0257 5.44917 21.9514 4.5825 23.1171C3.69417 24.3171 3.25 25.6114 3.25 27H0ZM13 15.4286C11.2233 15.4286 9.5875 15.0771 8.0925 14.3743C6.61917 13.6886 5.44917 12.7629 4.5825 11.5971C3.69417 10.4143 3.25 9.12 3.25 7.71428C3.25 6.30857 3.69417 5.01428 4.5825 3.83143C5.44917 2.66571 6.61917 1.74 8.0925 1.05429C9.5875 0.351429 11.2233 0 13 0C14.7767 0 16.4125 0.351429 17.9075 1.05429C19.3808 1.74 20.5508 2.66571 21.4175 3.83143C22.3058 5.01428 22.75 6.30857 22.75 7.71428C22.75 9.12 22.3058 10.4143 21.4175 11.5971C20.5508 12.7629 19.3808 13.6886 17.9075 14.3743C16.4125 15.0771 14.7767 15.4286 13 15.4286ZM13 12.8571C14.17 12.8571 15.2533 12.6257 16.25 12.1629C17.2467 11.7 18.0375 11.0743 18.6225 10.2857C19.2075 9.49714 19.5 8.64 19.5 7.71428C19.5 6.78857 19.2075 5.93143 18.6225 5.14286C18.0375 4.35428 17.2467 3.72857 16.25 3.26571C15.2533 2.80286 14.17 2.57143 13 2.57143C11.83 2.57143 10.7467 2.80286 9.75 3.26571C8.75333 3.72857 7.9625 4.35428 7.3775 5.14286C6.7925 5.93143 6.5 6.78857 6.5 7.71428C6.5 8.64 6.7925 9.49714 7.3775 10.2857C7.9625 11.0743 8.75333 11.7 9.75 12.1629C10.7467 12.6257 11.83 12.8571 13 12.8571Z" fill="#203AB9"/>
</svg>
